# xmcd
#
# Track frame offsets:
# 150
# 5526
# 29808
# 46694
# 47805
# 63337
# 76134
# 94538
# 105247
# 119890
# 120999
# 129901
# 153037
# 153861
# 167534
# 188838
# 205971
# 222314
#
# Disc length: 3292 seconds
#
# Revision: 0
# Processed by: cddbd v1.4PL0 Copyright (c) Steve Scherf et al.
# Submitted via: Axialis_AX_CDPlayer 2.6
#
DISCID=df0cda12
DTITLE=YOKO KANNO - NO DISC
DYEAR=1900
DGENRE=
TTITLE0=American Money
TTITLE1=Fantaisie Sign
TTITLE2=Don't Bother None
TTITLE3=Vitamin A
TTITLE4=Live In Baghdad
TTITLE5=Cats On Mars
TTITLE6=Want it All Back
TTITLE7=Bindy
TTITLE8=You Make Me Cool
TTITLE9=Vitamin B
TTITLE10=Green Bird
TTITLE11=Elm
TTITLE12=Vitamin C
TTITLE13=Gateway
TTITLE14=The Singing Sea
TTITLE15=The Egg And You
TTITLE16=Forever Broke
TTITLE17=Power Of Kung Food Remix
EXTD=
EXTT0=
EXTT1=
EXTT2=
EXTT3=
EXTT4=
EXTT5=
EXTT6=
EXTT7=
EXTT8=
EXTT9=
EXTT10=
EXTT11=
EXTT12=
EXTT13=
EXTT14=
EXTT15=
EXTT16=
EXTT17=
PLAYORDER=
